<svg xmlns="http://www.w3.org/2000/svg" width="30" height="30" viewBox="0 0 28 28" fill="none">
              <path d="M2.76667 2.59954L1.68945 3.67676L5.10062 7.08792L6.17784 6.0107L2.76667 2.59954Z" fill="black"></path>    <path d="M8.91406 0.944824H7.39062V4.75341H8.91406V0.944824Z" fill="black"></path>    <path d="M3.84374 8.30078H0.0351562V9.82422H3.84374V8.30078Z" fill="black"></path>    <path d="M20.8995 20.7323L19.8223 21.8096L23.2334 25.2207L24.3106 24.1435L20.8995 20.7323Z" fill="black"></path>    <path d="M25.9648 17.9961H22.1562V19.5195H25.9648V17.9961Z" fill="black"></path>    <path d="M18.6094 23.0664H17.0859V26.875H18.6094V23.0664Z" fill="black"></path>    <path d="M17.8401 9.07005C17.658 8.888 17.4679 8.71879 17.2714 8.56152L13.9771 11.8558C14.2055 11.9646 14.4195 12.113 14.6084 12.3018C15.4993 13.1927 15.4994 14.6425 14.6084 15.5335L8.46815 21.6736C7.57714 22.5646 6.12744 22.5646 5.23644 21.6736C4.34543 20.7827 4.34548 19.3329 5.23644 18.4419L5.69088 17.9875C4.7434 16.2889 4.43247 14.3283 4.75742 12.4576L2.00473 15.2102C-0.668242 17.8832 -0.668242 22.2324 2.00473 24.9053C4.67769 27.5783 9.02685 27.5783 11.6998 24.9053L17.84 18.7651C20.513 16.0922 20.513 11.743 17.8401 9.07005Z" fill="black"></path>    <path d="M23.9952 2.91488C21.3223 0.241914 16.9731 0.241914 14.3002 2.91488L8.16 9.05503C5.48703 11.728 5.48703 16.0772 8.16 18.7501C8.34048 18.9306 8.5309 19.0997 8.72915 19.2582L12.0229 15.9644C11.7946 15.8556 11.5805 15.7073 11.3917 15.5185C10.5035 14.6303 10.5009 13.1873 11.3832 12.2956C11.383 12.2954 17.5318 6.14659 17.5318 6.14659C18.4228 5.25559 19.8725 5.25564 20.7635 6.14659C21.6545 7.03755 21.6545 8.4873 20.7635 9.37831L23.9952 12.61C26.6682 9.937 26.6682 5.58785 23.9952 2.91488Z" fill="black"></path>
            </svg>