<svg height="30" width="30" xmlns="http://www.w3.org/2000/svg" viewBox="0 0 512 512">
              <path d="M74.96 407.064c3.061-82.464 41.669-165 106.747-225.632 39.177-36.509 84.732-62.947 135.396-78.57.738-.232 1.482-.4 2.228-.617-.697-2.003-1.266-4.07-2.027-6.033C301.112 54.055 270.837 21.384 233.206 0c-41.725 12.947-80.005 35.812-112.236 67.626-32.158 31.798-58.1 72.425-73.186 119.83-15.062 47.389-17.033 94.834-7.604 138.185 6.475 29.483 18.155 57.203 34.78 81.423"/><path d="M460.504 114.246c-45.033-5.744-91.501-1.546-136.15 12.122-44.665 13.788-87.824 37.615-125.871 73.074-69.901 65.134-104.392 153.439-98.479 236.359-9.87 7.499-19.845 14.918-30.116 22.24-10.375 7.283-20.614 14.614-33.392 21.84L54.707 512c15.134-8.604 25.717-16.272 36.597-23.891 10.712-7.635 20.942-15.246 31.037-22.922 79.099 27.336 181.792 5.84 260.746-67.722 42.83-39.874 72.338-89.547 85.917-140.228 13.701-50.633 10.984-102.043-8.5-142.991m-53.726 73.644c-19.974 29.17-50.193 63.972-82.72 98.326 28.898-4.735 51.996-9.038 63.06-11.16 4.655-.889 7.17-1.395 7.178-1.395a8.205 8.205 0 0 1 3.22 16.088c-.08.016-39.986 7.988-92.302 16.095a1990 1990 0 0 1-17.337 17.553 2248 2248 0 0 1-51.09 49.464c39.554-6.145 80.044-14.372 99.801-18.555 7.852-1.658 12.403-2.668 12.418-2.676a8.215 8.215 0 0 1 9.79 6.233 8.214 8.214 0 0 1-6.233 9.79c-.121.016-74.012 16.456-136.062 24.732l-.969.128c-16.232 14.782-30.124 26.888-40.043 35.003v.008c-3.5 2.868-8.676 2.347-11.544-1.162-2.868-3.5-2.347-8.676 1.162-11.544 10.343-8.461 25.469-21.688 43.183-37.919.505-3.557 1.058-8.044 1.634-13.275.969-8.782 2.002-19.452 3.02-30.661 2.044-22.408 4.006-46.948 5.256-62.988a4999 4999 0 0 0 1.346-17.593 8.2 8.2 0 0 1 8.789-7.571c4.519.329 7.908 4.27 7.572 8.789 0 .032-4.615 62.323-8.669 102.317-.136 1.338-.264 2.508-.4 3.781a2220 2220 0 0 0 49.44-47.901 2170 2170 0 0 0 17.978-18.203c2.452-9.806 4.246-25.444 5.32-41.116 1.194-16.961 1.666-34.105 1.859-45.073.128-7.307.128-11.833.128-11.842 0-4.534 3.669-8.204 8.204-8.204s8.204 3.67 8.204 8.204c-.008.144.016 41.741-3.509 75.27-.072.649-.153 1.266-.225 1.906 31.414-33.312 60.336-66.801 79.003-94.113 2.556-3.741 7.659-4.694 11.401-2.139 3.739 2.557 4.692 7.661 2.137 11.403"/>
            </svg>