<svg xmlns="http://www.w3.org/2000/svg" width="30" height="30" viewBox="0 0 28 28" fill="none">
              <path d="M21.9615 14.6797V15.5441C21.9615 18.7353 19.1382 21.8049 16.3037 24.0831C17.7799 25.5335 19.6597 26.5809 19.6846 26.6042C19.6846 26.6042 24.8113 23.7542 24.8113 20.9206V16.0887C24.5008 15.9352 23.1854 15.2848 21.9615 14.6797Z" fill="black"></path>    <path d="M21.1426 15.5441V6.14239L11.1635 1.21631L1.18848 6.14239V15.5441C1.18848 21.0558 11.1635 26.6043 11.1635 26.6043C11.1635 26.6043 11.7204 26.2972 12.568 25.7485C15.9267 23.6009 21.1426 19.5206 21.1426 15.5441ZM9.6043 16.6429L6.59368 13.632L8.08995 12.1358L9.6043 13.6501L14.2404 9.01387L15.7366 10.5104L9.6043 16.6429Z" fill="black"></path>
            </svg>